HIERARCHY
ROOT Hips
{
  OFFSET 57.8838 95.319 338.509
  CHANNELS 6 Xposition Yposition Zposition Zrotation Xrotation Yrotation
  JOINT LeftUpLeg
  {
    OFFSET 8.64259 1.95398 -2.38835
    CHANNELS 3 Zrotation Xrotation Yrotation
    JOINT LeftLeg
    {
      OFFSET 43.7702 0 0
      CHANNELS 3 Zrotation Xrotation Yrotation
      JOINT LeftFoot
      {
        OFFSET 40.6238 0 0
        CHANNELS 3 Zrotation Xrotation Yrotation
        JOINT LeftToeBase
        {
          OFFSET 12.7242 0 0
          CHANNELS 3 Zrotation Xrotation Yrotation
          End Site
          {
            OFFSET 0 0 0
          }
        }
      }
    }
  }
  JOINT RightUpLeg
  {
    OFFSET -8.2249 1.95398 -2.59336
    CHANNELS 3 Zrotation Xrotation Yrotation
    JOINT RightLeg
    {
      OFFSET 43.5653 0 0
      CHANNELS 3 Zrotation Xrotation Yrotation
      JOINT RightFoot
      {
        OFFSET 40.6238 0 0
        CHANNELS 3 Zrotation Xrotation Yrotation
        JOINT RightToeBase
        {
          OFFSET 12.7242 0 0
          CHANNELS 3 Zrotation Xrotation Yrotation
          End Site
          {
            OFFSET 0 0 0
          }
        }
      }
    }
  }
  JOINT Spine
  {
    OFFSET 0.165834 0.87714 6.61349
    CHANNELS 3 Zrotation Xrotation Yrotation
    JOINT Spine1
    {
      OFFSET 7.38963 1.71661e-005 0
      CHANNELS 3 Zrotation Xrotation Yrotation
      JOINT Spine2
      {
        OFFSET 11.9445 1.14441e-005 0
        CHANNELS 3 Zrotation Xrotation Yrotation
        JOINT Spine3
        {
          OFFSET 14.7254 4.19617e-005 0
          CHANNELS 3 Zrotation Xrotation Yrotation
          JOINT Spine4
          {
            OFFSET 10.9679 0 0
            CHANNELS 3 Zrotation Xrotation Yrotation
            JOINT RightShoulder
            {
              OFFSET 2.46616 -1.6653 3.69651
              CHANNELS 3 Zrotation Xrotation Yrotation
              JOINT RightArm
              {
                OFFSET 13.0012 0 0
                CHANNELS 3 Zrotation Xrotation Yrotation
                JOINT RightForeArm
                {
                  OFFSET 28.7848 1.62311e-005 0
                  CHANNELS 3 Zrotation Xrotation Yrotation
                  JOINT RightHand
                  {
                    OFFSET 26.5688 1.62095e-005 0
                    CHANNELS 3 Zrotation Xrotation Yrotation
                    End Site
                    {
                      OFFSET 0 0 0
                    }
                  }
                }
              }
            }
            JOINT LeftShoulder
            {
              OFFSET 2.38034 -1.29275 -3.7523
              CHANNELS 3 Zrotation Xrotation Yrotation
              JOINT LeftArm
              {
                OFFSET 16.3182 6.07031e-005 0
                CHANNELS 3 Zrotation Xrotation Yrotation
                JOINT LeftForeArm
                {
                  OFFSET 27.0901 0 0
                  CHANNELS 3 Zrotation Xrotation Yrotation
                  JOINT LeftHand
                  {
                    OFFSET 24.5451 1.51738e-005 0
                    CHANNELS 3 Zrotation Xrotation Yrotation
                    End Site
                    {
                      OFFSET 0 0 0
                    }
                  }
                }
              }
            }
            JOINT Neck
            {
              OFFSET 5.0226 -0.0266342 0
              CHANNELS 3 Zrotation Xrotation Yrotation
              JOINT Head
              {
                OFFSET 6.69364 2.86102e-005 0
                CHANNELS 3 Zrotation Xrotation Yrotation
                End Site
                {
                  OFFSET 0 0 0
                }
              }
            }
          }
        }
      }
    }
  }
}
MOTION
Frames:	17
Frame Time:	0.0416667
285.562 45.9695 -281.64 -91.4728 -68.2414 -84.2385 175.27 -48.0021 101.667 -1.2998 29.6959 0.138632 82.2577 13.3477 -22.4518 125.642 -35.1979 -80.7255 126.993 64.4775 122.216 0.0703662 -65.9763 0.0774459 24.7429 35.2485 42.7521 138.801 19.6559 121.913 -4.93062 6.66875 -82.8376 13.7572 -6.30372 15.1764 2.01011 -5.63784 15.4309 -20.1186 -10.5403 12.6428 -0.105909 -10.5402 12.6428 -61.4496 -14.8729 104.281 11.8245 -27.3315 50.2364 32.8514 -28.9801 0.0192569 -21.7869 28.7006 -112.255 -76.7091 9.56482 101.825 -15.9248 -38.0945 -77.2214 179.273 -83.2277 -179.99 32.3624 30.1081 75.3923 -88.8847 23.6335 -20.4484 97.6128 -9.12169 -18.7394 
276.196 65.8939 -271.171 -83.7501 -63.5385 -77.7713 -178.619 -40.7818 102.239 -2.76603 27.1046 0.438528 74.7743 12.2295 -22.5667 137.79 -38.4547 -77.849 143.993 54.7701 110.624 -0.761372 -54.2388 0.117074 37.6763 18.9794 34.9843 162.025 6.10796 112.132 -2.12365 7.14318 -89.4965 12.2995 -4.00549 1.30029 0.629057 -3.94534 1.47557 -21.9236 -4.20748 0.0345749 -1.91092 -4.20748 0.03457 -53.5058 -76.4163 117.382 80.0655 -35.5712 90.4962 8.07412 77.3662 3.26987 -6.43165 6.46562 -87.7093 10.1083 -86.4764 -171.257 139.044 69.0951 -56.6174 29.7584 -20.6791 -81.1262 82.0909 -23.6092 -29.8983 -76.6248 -8.04829 -22.0815 117.366 -17.6145 2.28793 
262.006 87.2628 -257.03 -79.0739 -59.0017 -77.7928 -176.35 -27.8809 95.2422 -20.9844 27.7213 3.2452 66.4888 7.21965 -11.3312 80.115 -58.4952 -135.942 165.674 44.9377 94.3866 -4.39666 -12.5637 0.918839 52.1049 5.1964 48.3025 -125.713 -46.7924 131.385 -1.6804 8.2993 -89.4571 10.2921 -3.09943 1.35534 -1.37611 -3.03678 1.49051 -23.94 -3.36336 0.360203 -3.9274 -3.36336 0.360196 84.8114 -69.7735 -103.289 25.8651 -15.8449 31.379 -6.47743 -3.90608 -14.2045 -11.1152 3.68825 -51.8734 -84.716 -46.6147 86.3616 22.4965 21.8146 -18.1611 -3.6636 -4.15985 -89.017 38.5854 -5.69488 -19.2319 -57.6924 4.90889 -35.2729 113.385 10.2903 9.00669 
243.286 96.6248 -238.414 -87.9667 -56.3721 -88.2438 -176.828 -12.5834 88.5937 -67.0326 13.3252 6.14863 52.5314 -5.07694 3.84959 32.4287 -67.3585 132.416 171.002 34.6185 89.7502 -18.5257 -2.49451 5.73011 48.0734 21.0758 35.9055 45.6928 -28.7608 -26.2551 -1.25317 8.58674 -89.9792 9.70433 -2.48876 0.239739 -1.96429 -2.47579 0.349103 -24.5181 -2.4457 -0.519792 -4.50541 -2.44571 -0.519795 96.5432 -50.6666 -90.669 37.8735 -15.3298 28.9763 -14.7513 -2.28558 -42.4973 -7.18627 1.20411 -27.2872 -82.412 -42.4497 89.449 -8.00177 14.9866 -9.29117 8.91932 1.57169 -86.2559 16.4049 -1.76711 -14.7344 -45.5049 3.76652 -36.217 92.4804 24.5832 25.783 
223.263 92.1318 -219.896 -93.7159 -50.6125 -85.8746 -172.886 7.89253 92.8253 -105.675 6.02696 6.36917 51.9825 -3.38918 11.3884 32.1262 0.522981 27.3679 170.768 29.0229 104.803 -47.3956 -11.3197 5.69746 67.9482 -3.5122 4.90013 25.9179 3.59477 2.09449 -0.488545 9.1244 -91.1317 8.60627 -1.47585 -2.14416 -3.06549 -1.56878 -2.07716 -25.5888 -0.763454 -2.48838 -5.57614 -0.763452 -2.48839 95.17 -53.2207 -92.432 24.0494 -17.1843 8.99662 -12.9911 -1.84211 -54.4831 -13.4067 0.0322841 -5.62356 -81.043 -48.7074 92.145 -12.5206 4.5639 1.44866 7.28324 10.8099 -61.9932 17.3063 -2.40593 -17.6622 -5.97592 -0.475168 -36.5898 34.9863 20.8832 48.4041 
203.984 89.1121 -201.554 -91.0995 -48.5324 -81.6845 179.12 39.4872 91.6406 -104.705 4.0881 6.06928 54.332 -0.996231 12.8312 48.6612 10.1646 13.4233 173.853 11.2965 109.918 -49.0324 -10.6591 3.75536 74.8099 -18.5207 -3.55223 38.764 -13.0493 0.959227 0.280588 9.00819 -91.4633 8.87269 -0.0918508 -2.92244 -2.80149 -0.220342 -2.91559 -25.313 0.790517 -2.81512 -5.30038 0.790532 -2.81512 96.6233 -51.1594 -90.4804 19.6544 -18.7716 -10.76 -20.2334 3.88035 -70.5265 -15.1769 -0.916278 1.89422 -82.1829 -49.8667 90.4882 -10.256 0.00711945 7.85506 2.12587 28.5164 -38.9296 14.4619 -2.01558 -17.3247 35.6 -2.86256 -13.9293 -15.3684 0.3182 24.7196 
182.514 94.7201 -181.534 -82.2339 -44.6893 -83.5502 178.01 46.2544 86.4561 -49.9986 10.9296 1.61688 52.3865 -5.36168 7.93649 47.3213 9.03721 11.3929 174.786 -6.97594 99.4817 -29.6861 -11.0214 0.100266 65.1906 5.62651 15.6529 26.631 2.99616 -2.30461 0.868015 8.10715 -90.1348 10.6603 1.66683 -0.411804 -1.00964 1.64712 -0.484793 -23.5535 1.71345 0.108336 -3.54088 1.71347 0.108335 98.1001 -48.2872 -88.4575 21.5347 -31.1348 -11.064 -24.0669 16.4255 -90.7168 -14.9067 -1.04313 3.02314 -83.1681 -47.0166 88.6903 -10.9848 3.47984 18.3319 -4.04775 31.07 -33.3715 15.3042 -2.14568 -17.5393 40.217 -1.53133 -4.19519 -24.4661 -1.17421 8.67984 
161.773 96.0326 -162.077 -85.8355 -42.7985 -85.5468 179.086 37.1816 88.2228 -23.4901 7.22643 -3.4842 49.2142 -13.8276 1.63129 46.4165 8.84639 13.9079 176.689 -9.30424 98.8856 -54.3986 -17.9585 -1.36357 50.8915 16.4717 13.8915 15.9946 16.902 0.430719 1.00727 8.3516 -89.9747 10.1703 2.01889 -0.12953 -1.49907 2.01124 -0.218306 -24.0466 1.96446 0.483478 -4.03399 1.96446 0.483481 98.6361 -48.0508 -87.6233 26.7959 -41.3081 -2.64228 -29.2619 24.8068 -98.3542 -11.6323 -0.685954 1.76402 -84.4646 -47.6471 86.7612 -13.0758 2.43493 19.6959 -3.6769 30.9861 -33.1429 14.6319 -2.22484 -18.5635 39.1483 -1.09541 -2.53667 -23.9558 -1.26278 7.38532 
141.911 91.0956 -143.124 -95.9401 -48.0408 -99.3602 -177.041 25.3114 74.8301 -45.5365 16.9898 -3.31101 59.1272 5.74977 19.8559 43.0534 5.92611 1.75115 170.234 7.38147 90.9592 -107.509 -18.824 -2.60777 53.5263 11.0634 0.421157 20.2549 11.8183 -1.77177 -0.0771016 9.29014 -89.1877 8.28939 0.203803 1.59345 -3.38249 0.273703 1.58294 -25.91 -0.284458 1.58105 -5.89731 -0.284485 1.58104 97.9228 -51.2681 -88.4832 32.3363 -33.2788 7.47053 -27.0212 14.7597 -85.4959 -18.138 -1.32644 3.32547 -83.1509 -50.8856 89.1197 -8.65737 -0.462627 1.49007 2.36868 30.9555 -37.0763 14.1777 -2.04131 -17.7239 38.8233 -1.81399 -7.77802 -21.6635 0.0100264 11.6641 
121.919 89.1158 -124.889 -94.292 -54.044 -97.7281 -177.592 6.79594 76.1587 -49.6651 24.6254 -0.174012 63.7887 14.8705 24.7362 58.7272 13.6246 5.83494 170.261 41.4815 91.4271 -114.658 -15.4888 -2.60644 56.4392 7.04253 2.11212 25.0606 5.52834 -4.10819 -1.08069 9.02046 -89.3816 8.85604 -1.88067 1.37284 -2.8143 -1.81841 1.45429 -25.3591 -2.20637 0.744001 -5.34648 -2.20636 0.743999 98.9148 -51.5879 -86.9414 35.3866 -25.004 14.8671 -26.7656 -1.79912 -65.6902 -18.9719 -1.23181 2.35326 -83.3704 -50.6724 88.7726 -11.9623 -3.27378 -19.0609 4.22378 18.124 -45.7847 18.1285 -2.63934 -18.3484 32.2702 -0.656839 -9.82606 -18.6007 1.5864 13.4515 
98.6754 95.1839 -102.994 -88.4843 -57.7138 -87.5396 -176.966 -11.1804 87.6746 -33.5558 24.7998 5.66022 55.0176 -6.11407 3.79813 49.529 9.56077 8.41328 171.544 45.2076 91.7764 -64.2173 -14.2011 0.462945 58.9555 6.00209 6.19711 28.3728 0.874447 -6.31836 -1.62466 8.01349 -90.1584 10.8455 -3.30802 -0.0122893 -0.821185 -3.30535 0.133469 -23.3879 -3.1512 -1.00693 -3.37524 -3.1512 -1.00694 99.1139 -49.3431 -86.7844 42.9528 -20.0891 30.6115 -26.0455 -3.45837 -59.7123 -17.0715 -0.691862 -0.556426 -81.6241 -48.5353 91.2366 -10.6783 5.47321 -19.1805 9.46048 2.70106 -71.4037 15.266 -2.21661 -17.9767 24.4376 0.805505 -12.4994 -21.3069 2.48132 15.8554 
76.3825 97.7686 -81.4379 -90.2271 -59.299 -90.2024 -176.001 -16.1472 92.7374 -49.8743 17.0805 7.07156 46.9252 -11.811 1.3847 41.5283 6.04365 12.0653 176.088 35.685 84.3319 -21.8734 -4.80366 2.06928 52.9662 18.1829 15.5855 28.6995 0.670491 -11.9343 -1.77289 7.73721 -90.1265 11.4033 -3.58652 0.115665 -0.262807 -3.57798 0.273596 -22.8358 -3.45533 -0.968946 -2.82315 -3.45533 -0.968952 98.5149 -48.4146 -87.7864 44.0934 -15.3219 35.1159 -20.2464 -2.3318 -57.8284 -15.8653 -0.382653 -2.42379 -81.1071 -46.2152 91.8828 -5.26346 15.7375 -10.0863 7.21343 -2.59935 -94.5426 17.8056 -2.3067 -16.8321 20.7847 1.16312 -11.0605 -20.604 2.29841 14.7726 
55.3415 92.5433 -61.0953 -99.3272 -51.7807 -92.3457 -171.175 -8.94437 94.4773 -91.7193 9.11472 6.6615 49.8942 -8.04183 8.01515 39.0338 4.59017 9.79995 171.326 29.7198 93.3669 -33.1089 -13.1193 5.68209 56.3128 12.7766 12.4691 24.9394 6.0354 -6.37545 -0.846983 8.39286 -90.9486 10.0699 -2.11971 -1.70662 -1.60034 -2.19274 -1.61168 -24.1345 -1.50891 -2.26465 -4.12183 -1.50893 -2.26466 98.4216 -47.8464 -87.9793 36.9889 -20.5042 25.8118 -19.2067 -0.566584 -58.4884 -12.6209 -0.316355 -2.34253 -80.6145 -49.126 92.8274 -10.0879 12.7277 5.46818 3.76532 -2.85631 -88.3116 17.1374 -1.96404 -15.2359 23.1876 2.45946 -6.43928 -20.392 2.32611 13.9845 
34.8516 88.2136 -41.7788 -97.4795 -52.4345 -88.6789 -174.695 17.9646 92.3406 -111.113 8.26703 6.3216 52.1446 -3.37529 11.4325 42.6147 6.44506 10.2108 169.001 19.6503 103.292 -54.0204 -17.1496 4.6669 69.0187 -12.4312 -6.48055 37.3742 -11.199 0.865095 -0.246298 8.23368 -91.4284 10.3863 -1.14479 -2.73256 -1.28688 -1.26389 -2.67959 -23.7995 -0.271031 -2.95009 -3.78684 -0.271044 -2.9501 98.5511 -49.4824 -87.648 25.4819 -20.9462 9.321 -16.9502 -1.65895 -59.4321 -15.5592 -1.00381 2.41091 -79.9933 -52.6315 93.9278 -15.2101 -1.4036 8.21353 9.35239 20.1619 -56.1486 13.8006 -1.77277 -16.3048 27.1749 1.48859 -5.17556 -21.4916 0.97956 14.0404 
13.58 93.6307 -21.3881 -98.8865 -51.18 -93.5593 -178.623 30.2635 83.9545 -75.8434 9.60708 3.75513 54.024 -1.92839 10.0669 46.7088 8.35991 8.78241 172.425 -1.79418 89.2292 -41.7939 -10.0164 0.446589 69.4723 -0.598784 9.0993 33.2723 -6.26987 -3.71645 0.427435 7.96663 -90.5996 10.9558 0.572509 -1.2763 -0.715693 0.515803 -1.30026 -23.2487 0.929663 -1.04527 -3.23607 0.929669 -1.04527 97.8452 -50.0552 -88.7027 23.3558 -27.0728 5.86158 -16.9633 2.90104 -63.0987 -14.3976 -0.889355 1.99215 -81.0359 -51.6646 92.3263 -13.6927 -7.27957 13.5081 1.59621 36.6092 -29.453 13.3205 -1.55065 -15.5166 22.4182 -1.86818 -7.39137 -21.1372 -1.02996 10.204 
-6.97937 96.9623 -1.73781 -96.693 -44.985 -90.7691 178.761 26.3046 90.0728 -18.9314 9.19941 -0.757461 47.3482 -12.1089 5.00465 43.2954 6.65375 9.17469 174.168 -16.5772 95.7262 -48.0647 -10.2486 -2.56807 64.1675 1.38477 12.442 29.8017 -1.29253 -4.64789 1.14154 7.45277 -90.326 11.9756 2.11611 -0.877601 0.306012 2.07543 -0.969917 -22.2425 2.28196 -0.200761 -2.22983 2.28198 -0.200755 97.8743 -47.06 -88.9297 28.9956 -35.6212 10.6064 -20.3044 9.34185 -70.1171 -15.3499 -0.753444 0.548974 -82.0952 -48.3127 90.499 -10.2051 -5.90146 27.9301 0.752395 44.4543 -28.0877 11.1571 -1.6507 -17.4371 17.6058 -2.28453 -6.00945 -22.197 -1.78659 7.42137 
-25.5336 92.2511 16.3274 -102.999 -42.5588 -94.5229 -178.349 25.5607 89.1191 -24.3517 13.3468 -2.03938 47.8383 -13.5797 1.66075 34.4029 2.26921 2.37095 171.295 -10.8253 93.2123 -86.6018 -9.03102 -3.56012 62.5473 -4.72365 -2.18331 37.4292 -12.477 -5.60645 0.855423 8.01324 -90.1524 10.8515 1.63285 -0.455897 -0.818565 1.61123 -0.527344 -23.362 1.69436 0.0560568 -3.34932 1.69436 0.0560644 98.451 -46.297 -88.0556 32.5704 -30.9052 13.8934 -20.0029 8.22242 -71.9231 -16.3704 -1.03805 2.20608 -83.0964 -44.4019 88.5388 -9.57969 -5.67857 37.1046 3.23942 43.5443 -32.1221 9.93662 -1.48607 -17.258 21.2713 -1.0566 -7.89769 -24.4176 -0.373173 9.76768 
